<mxfile host="app.diagrams.net" modified="2024-04-14T20:43:53.865Z" agent="Mozilla/5.0 (Windows NT 10.0; Win64; x64) AppleWebKit/537.36 (KHTML, like Gecko) Chrome/123.0.0.0 Safari/537.36" etag="450SSxwysIte7GVoRLin" version="24.2.3" type="device">
  <diagram name="Page-1" id="c7488fd3-1785-93aa-aadb-54a6760d102a">
    <mxGraphModel dx="1196" dy="876" grid="1" gridSize="10" guides="1" tooltips="1" connect="1" arrows="1" fold="1" page="1" pageScale="1" pageWidth="1100" pageHeight="850" background="none" math="0" shadow="0">
      <root>
        <mxCell id="0" />
        <mxCell id="1" parent="0" />
        <mxCell id="2b4e8129b02d487f-1" value="&lt;font style=&quot;vertical-align: inherit;&quot;&gt;&lt;font style=&quot;vertical-align: inherit;&quot;&gt;&lt;font style=&quot;vertical-align: inherit;&quot;&gt;&lt;font style=&quot;vertical-align: inherit;&quot;&gt;&lt;font style=&quot;vertical-align: inherit;&quot;&gt;&lt;font style=&quot;vertical-align: inherit;&quot;&gt;Processo de manutenção da maquina do colaborador&lt;/font&gt;&lt;/font&gt;&lt;/font&gt;&lt;/font&gt;&lt;/font&gt;&lt;/font&gt;" style="swimlane;html=1;childLayout=stackLayout;horizontal=1;startSize=20;horizontalStack=0;rounded=0;shadow=0;labelBackgroundColor=none;strokeWidth=1;fontFamily=Verdana;fontSize=8;align=center;" parent="1" vertex="1">
          <mxGeometry x="140" y="160" width="840" height="800" as="geometry" />
        </mxCell>
        <mxCell id="2b4e8129b02d487f-2" value="&lt;font style=&quot;vertical-align: inherit;&quot;&gt;&lt;font style=&quot;vertical-align: inherit;&quot;&gt;Analista de Suporte&amp;nbsp;&lt;/font&gt;&lt;/font&gt;" style="swimlane;html=1;startSize=20;horizontal=0;" parent="2b4e8129b02d487f-1" vertex="1">
          <mxGeometry y="20" width="840" height="200" as="geometry" />
        </mxCell>
        <mxCell id="2b4e8129b02d487f-18" style="edgeStyle=orthogonalEdgeStyle;rounded=0;html=1;labelBackgroundColor=none;startArrow=none;startFill=0;startSize=5;endArrow=classicThin;endFill=1;endSize=5;jettySize=auto;orthogonalLoop=1;strokeWidth=1;fontFamily=Verdana;fontSize=8" parent="2b4e8129b02d487f-2" source="2b4e8129b02d487f-5" target="2b4e8129b02d487f-6" edge="1">
          <mxGeometry relative="1" as="geometry" />
        </mxCell>
        <mxCell id="2b4e8129b02d487f-5" value="" style="ellipse;whiteSpace=wrap;html=1;rounded=0;shadow=0;labelBackgroundColor=none;strokeWidth=1;fontFamily=Verdana;fontSize=8;align=center;fillColor=#d5e8d4;strokeColor=#82b366;" parent="2b4e8129b02d487f-2" vertex="1">
          <mxGeometry x="60" y="60" width="30" height="30" as="geometry" />
        </mxCell>
        <mxCell id="2b4e8129b02d487f-6" value="&lt;font style=&quot;vertical-align: inherit;&quot;&gt;&lt;font style=&quot;vertical-align: inherit;&quot;&gt;Recebe Notificação&amp;nbsp;&lt;/font&gt;&lt;/font&gt;" style="rounded=1;whiteSpace=wrap;html=1;shadow=0;labelBackgroundColor=none;strokeWidth=1;fontFamily=Verdana;fontSize=8;align=center;" parent="2b4e8129b02d487f-2" vertex="1">
          <mxGeometry x="120" y="56.49999999999997" width="70" height="37" as="geometry" />
        </mxCell>
        <mxCell id="2b4e8129b02d487f-24" style="edgeStyle=orthogonalEdgeStyle;rounded=0;html=1;labelBackgroundColor=none;startArrow=none;startFill=0;startSize=5;endArrow=classicThin;endFill=1;endSize=5;jettySize=auto;orthogonalLoop=1;strokeWidth=1;fontFamily=Verdana;fontSize=8;entryX=0;entryY=0.5;entryDx=0;entryDy=0;entryPerimeter=0;" parent="2b4e8129b02d487f-2" source="2b4e8129b02d487f-6" target="haEdG8nxDOKXYVsz_60H-20" edge="1">
          <mxGeometry relative="1" as="geometry">
            <mxPoint x="230" y="75.00000000000006" as="targetPoint" />
          </mxGeometry>
        </mxCell>
        <mxCell id="haEdG8nxDOKXYVsz_60H-35" style="edgeStyle=none;curved=1;rounded=0;orthogonalLoop=1;jettySize=auto;html=1;entryX=0;entryY=0.5;entryDx=0;entryDy=0;fontSize=12;startSize=8;endSize=8;" parent="2b4e8129b02d487f-2" source="haEdG8nxDOKXYVsz_60H-20" target="haEdG8nxDOKXYVsz_60H-34" edge="1">
          <mxGeometry relative="1" as="geometry" />
        </mxCell>
        <mxCell id="haEdG8nxDOKXYVsz_60H-20" value="&lt;font face=&quot;Verdana&quot;&gt;&lt;span style=&quot;font-size: 8px;&quot;&gt;Identificar o problema&lt;/span&gt;&lt;/font&gt;" style="points=[[0.25,0,0],[0.5,0,0],[0.75,0,0],[1,0.25,0],[1,0.5,0],[1,0.75,0],[0.75,1,0],[0.5,1,0],[0.25,1,0],[0,0.75,0],[0,0.5,0],[0,0.25,0]];shape=mxgraph.bpmn.task;whiteSpace=wrap;rectStyle=rounded;size=10;html=1;container=1;expand=0;collapsible=0;taskMarker=abstract;isLoopSub=1;" parent="2b4e8129b02d487f-2" vertex="1">
          <mxGeometry x="220" y="45" width="90" height="60" as="geometry" />
        </mxCell>
        <mxCell id="haEdG8nxDOKXYVsz_60H-30" style="edgeStyle=none;curved=1;rounded=0;orthogonalLoop=1;jettySize=auto;html=1;fontSize=12;startSize=8;endSize=8;entryX=0.5;entryY=0;entryDx=0;entryDy=0;" parent="2b4e8129b02d487f-2" source="haEdG8nxDOKXYVsz_60H-24" target="haEdG8nxDOKXYVsz_60H-32" edge="1">
          <mxGeometry relative="1" as="geometry">
            <mxPoint x="370" y="120" as="targetPoint" />
          </mxGeometry>
        </mxCell>
        <mxCell id="haEdG8nxDOKXYVsz_60H-40" style="edgeStyle=none;curved=1;rounded=0;orthogonalLoop=1;jettySize=auto;html=1;fontSize=12;startSize=8;endSize=8;" parent="2b4e8129b02d487f-2" source="haEdG8nxDOKXYVsz_60H-24" edge="1">
          <mxGeometry relative="1" as="geometry">
            <mxPoint x="570" y="75" as="targetPoint" />
          </mxGeometry>
        </mxCell>
        <mxCell id="haEdG8nxDOKXYVsz_60H-24" value="" style="points=[[0.25,0.25,0],[0.5,0,0],[0.75,0.25,0],[1,0.5,0],[0.75,0.75,0],[0.5,1,0],[0.25,0.75,0],[0,0.5,0]];shape=mxgraph.bpmn.gateway2;html=1;verticalLabelPosition=bottom;labelBackgroundColor=#ffffff;verticalAlign=top;align=center;perimeter=rhombusPerimeter;outlineConnect=0;outline=none;symbol=none;gwType=exclusive;" parent="2b4e8129b02d487f-2" vertex="1">
          <mxGeometry x="470" y="50" width="50" height="50" as="geometry" />
        </mxCell>
        <mxCell id="haEdG8nxDOKXYVsz_60H-26" value="&lt;font style=&quot;font-size: 9px;&quot;&gt;A necessidade de abrir um chamado técnico&lt;/font&gt;" style="text;html=1;align=center;verticalAlign=middle;whiteSpace=wrap;rounded=0;fontSize=16;" parent="2b4e8129b02d487f-2" vertex="1">
          <mxGeometry x="445" y="15" width="100" height="30" as="geometry" />
        </mxCell>
        <mxCell id="haEdG8nxDOKXYVsz_60H-27" value="&lt;font style=&quot;font-size: 10px;&quot;&gt;Não&lt;/font&gt;" style="text;html=1;align=center;verticalAlign=middle;whiteSpace=wrap;rounded=0;fontSize=16;" parent="2b4e8129b02d487f-2" vertex="1">
          <mxGeometry x="510" y="70" width="60" height="30" as="geometry" />
        </mxCell>
        <mxCell id="haEdG8nxDOKXYVsz_60H-28" value="&lt;font style=&quot;font-size: 10px;&quot;&gt;Sim&lt;/font&gt;" style="text;html=1;align=center;verticalAlign=middle;whiteSpace=wrap;rounded=0;fontSize=16;" parent="2b4e8129b02d487f-2" vertex="1">
          <mxGeometry x="490" y="105" width="60" height="30" as="geometry" />
        </mxCell>
        <mxCell id="haEdG8nxDOKXYVsz_60H-32" value="Abrir Chamado" style="rounded=1;whiteSpace=wrap;html=1;shadow=0;labelBackgroundColor=none;strokeWidth=1;fontFamily=Verdana;fontSize=8;align=center;" parent="2b4e8129b02d487f-2" vertex="1">
          <mxGeometry x="460" y="140" width="70" height="37" as="geometry" />
        </mxCell>
        <mxCell id="haEdG8nxDOKXYVsz_60H-34" value="Gerar Relatório" style="rounded=1;whiteSpace=wrap;html=1;shadow=0;labelBackgroundColor=none;strokeWidth=1;fontFamily=Verdana;fontSize=8;align=center;" parent="2b4e8129b02d487f-2" vertex="1">
          <mxGeometry x="360" y="56.49999999999997" width="70" height="37" as="geometry" />
        </mxCell>
        <mxCell id="haEdG8nxDOKXYVsz_60H-36" style="edgeStyle=none;curved=1;rounded=0;orthogonalLoop=1;jettySize=auto;html=1;entryX=0;entryY=0.5;entryDx=0;entryDy=0;entryPerimeter=0;fontSize=12;startSize=8;endSize=8;" parent="2b4e8129b02d487f-2" source="haEdG8nxDOKXYVsz_60H-34" target="haEdG8nxDOKXYVsz_60H-24" edge="1">
          <mxGeometry relative="1" as="geometry" />
        </mxCell>
        <mxCell id="2b4e8129b02d487f-3" value="Suporte Técnico" style="swimlane;html=1;startSize=20;horizontal=0;" parent="2b4e8129b02d487f-1" vertex="1">
          <mxGeometry y="220" width="840" height="300" as="geometry" />
        </mxCell>
        <mxCell id="haEdG8nxDOKXYVsz_60H-45" style="edgeStyle=none;curved=1;rounded=0;orthogonalLoop=1;jettySize=auto;html=1;entryX=0;entryY=0.5;entryDx=0;entryDy=0;fontSize=12;startSize=8;endSize=8;" parent="2b4e8129b02d487f-3" source="2b4e8129b02d487f-12" target="haEdG8nxDOKXYVsz_60H-44" edge="1">
          <mxGeometry relative="1" as="geometry" />
        </mxCell>
        <mxCell id="2b4e8129b02d487f-12" value="Receber chamado&amp;nbsp;&amp;nbsp;" style="rounded=1;whiteSpace=wrap;html=1;shadow=0;labelBackgroundColor=none;strokeWidth=1;fontFamily=Verdana;fontSize=8;align=center;" parent="2b4e8129b02d487f-3" vertex="1">
          <mxGeometry x="80" y="80.99999999999996" width="70" height="37" as="geometry" />
        </mxCell>
        <mxCell id="haEdG8nxDOKXYVsz_60H-9" value="&lt;span style=&quot;font-size: 9px; text-wrap: nowrap;&quot;&gt;É necessário&amp;nbsp;&lt;/span&gt;&lt;div&gt;&lt;span style=&quot;font-size: 9px; text-wrap: nowrap;&quot;&gt;substituir equipamento&lt;/span&gt;&lt;/div&gt;" style="text;html=1;align=center;verticalAlign=middle;whiteSpace=wrap;rounded=0;fontSize=16;" parent="2b4e8129b02d487f-3" vertex="1">
          <mxGeometry x="405" y="35" width="80" height="30" as="geometry" />
        </mxCell>
        <mxCell id="haEdG8nxDOKXYVsz_60H-16" value="&lt;font style=&quot;font-size: 11px;&quot;&gt;Sim&lt;/font&gt;" style="text;html=1;align=center;verticalAlign=middle;whiteSpace=wrap;rounded=0;fontSize=16;" parent="2b4e8129b02d487f-3" vertex="1">
          <mxGeometry x="450" y="102" width="60" height="16" as="geometry" />
        </mxCell>
        <mxCell id="haEdG8nxDOKXYVsz_60H-18" value="&lt;span style=&quot;font-size: 11px;&quot;&gt;Não&lt;/span&gt;" style="text;html=1;align=center;verticalAlign=middle;whiteSpace=wrap;rounded=0;fontSize=16;" parent="2b4e8129b02d487f-3" vertex="1">
          <mxGeometry x="440" y="142" width="60" height="16" as="geometry" />
        </mxCell>
        <mxCell id="haEdG8nxDOKXYVsz_60H-43" style="edgeStyle=none;curved=1;rounded=0;orthogonalLoop=1;jettySize=auto;html=1;fontSize=12;startSize=8;endSize=8;entryX=0;entryY=0.5;entryDx=0;entryDy=0;" parent="2b4e8129b02d487f-3" source="haEdG8nxDOKXYVsz_60H-25" target="haEdG8nxDOKXYVsz_60H-58" edge="1">
          <mxGeometry relative="1" as="geometry">
            <mxPoint x="510" y="99.5" as="targetPoint" />
          </mxGeometry>
        </mxCell>
        <mxCell id="haEdG8nxDOKXYVsz_60H-85" style="edgeStyle=none;curved=1;rounded=0;orthogonalLoop=1;jettySize=auto;html=1;fontSize=12;startSize=8;endSize=8;entryX=0.5;entryY=0;entryDx=0;entryDy=0;" parent="2b4e8129b02d487f-3" source="haEdG8nxDOKXYVsz_60H-25" target="haEdG8nxDOKXYVsz_60H-102" edge="1">
          <mxGeometry relative="1" as="geometry">
            <mxPoint x="445" y="170" as="targetPoint" />
          </mxGeometry>
        </mxCell>
        <mxCell id="haEdG8nxDOKXYVsz_60H-25" value="" style="points=[[0.25,0.25,0],[0.5,0,0],[0.75,0.25,0],[1,0.5,0],[0.75,0.75,0],[0.5,1,0],[0.25,0.75,0],[0,0.5,0]];shape=mxgraph.bpmn.gateway2;html=1;verticalLabelPosition=bottom;labelBackgroundColor=#ffffff;verticalAlign=top;align=center;perimeter=rhombusPerimeter;outlineConnect=0;outline=none;symbol=none;gwType=exclusive;" parent="2b4e8129b02d487f-3" vertex="1">
          <mxGeometry x="420" y="74.5" width="50" height="50" as="geometry" />
        </mxCell>
        <mxCell id="haEdG8nxDOKXYVsz_60H-33" style="edgeStyle=none;curved=0;rounded=0;orthogonalLoop=1;jettySize=auto;html=1;entryX=0.413;entryY=0.058;entryDx=0;entryDy=0;entryPerimeter=0;fontSize=12;startSize=8;endSize=8;" parent="2b4e8129b02d487f-3" edge="1">
          <mxGeometry relative="1" as="geometry">
            <mxPoint x="496.0900000000001" y="-25.150000000000006" as="sourcePoint" />
            <mxPoint x="109.99999999999997" y="80.99599999999998" as="targetPoint" />
            <Array as="points">
              <mxPoint x="496.09" y="17.849999999999994" />
              <mxPoint x="371.09" y="17.849999999999994" />
              <mxPoint x="110.09" y="17.849999999999994" />
            </Array>
          </mxGeometry>
        </mxCell>
        <mxCell id="haEdG8nxDOKXYVsz_60H-82" style="edgeStyle=none;curved=1;rounded=0;orthogonalLoop=1;jettySize=auto;html=1;entryX=0;entryY=0.5;entryDx=0;entryDy=0;fontSize=12;startSize=8;endSize=8;" parent="2b4e8129b02d487f-3" source="haEdG8nxDOKXYVsz_60H-44" target="haEdG8nxDOKXYVsz_60H-81" edge="1">
          <mxGeometry relative="1" as="geometry" />
        </mxCell>
        <mxCell id="haEdG8nxDOKXYVsz_60H-44" value="Analisar relatório" style="rounded=1;whiteSpace=wrap;html=1;shadow=0;labelBackgroundColor=none;strokeWidth=1;fontFamily=Verdana;fontSize=8;align=center;" parent="2b4e8129b02d487f-3" vertex="1">
          <mxGeometry x="190" y="80.99999999999994" width="70" height="37" as="geometry" />
        </mxCell>
        <mxCell id="haEdG8nxDOKXYVsz_60H-59" style="edgeStyle=none;curved=1;rounded=0;orthogonalLoop=1;jettySize=auto;html=1;fontSize=12;startSize=8;endSize=8;" parent="2b4e8129b02d487f-3" source="haEdG8nxDOKXYVsz_60H-58" edge="1">
          <mxGeometry relative="1" as="geometry">
            <mxPoint x="640" y="100" as="targetPoint" />
          </mxGeometry>
        </mxCell>
        <mxCell id="haEdG8nxDOKXYVsz_60H-58" value="Solicitar Equipamento" style="rounded=1;whiteSpace=wrap;html=1;shadow=0;labelBackgroundColor=none;strokeWidth=1;fontFamily=Verdana;fontSize=8;align=center;" parent="2b4e8129b02d487f-3" vertex="1">
          <mxGeometry x="520" y="80.99999999999994" width="70" height="37" as="geometry" />
        </mxCell>
        <mxCell id="haEdG8nxDOKXYVsz_60H-84" style="edgeStyle=none;curved=1;rounded=0;orthogonalLoop=1;jettySize=auto;html=1;fontSize=12;startSize=8;endSize=8;" parent="2b4e8129b02d487f-3" source="haEdG8nxDOKXYVsz_60H-81" target="haEdG8nxDOKXYVsz_60H-25" edge="1">
          <mxGeometry relative="1" as="geometry" />
        </mxCell>
        <mxCell id="haEdG8nxDOKXYVsz_60H-81" value="Notificar colaborador&amp;nbsp;&amp;nbsp;" style="rounded=1;whiteSpace=wrap;html=1;shadow=0;labelBackgroundColor=none;strokeWidth=1;fontFamily=Verdana;fontSize=8;align=center;" parent="2b4e8129b02d487f-3" vertex="1">
          <mxGeometry x="310" y="77.75" width="70" height="43.5" as="geometry" />
        </mxCell>
        <mxCell id="haEdG8nxDOKXYVsz_60H-102" value="Agendar manutenção remota" style="rounded=1;whiteSpace=wrap;html=1;shadow=0;labelBackgroundColor=none;strokeWidth=1;fontFamily=Verdana;fontSize=8;align=center;" parent="2b4e8129b02d487f-3" vertex="1">
          <mxGeometry x="410" y="180" width="70" height="43.5" as="geometry" />
        </mxCell>
        <mxCell id="2b4e8129b02d487f-4" value="Colaborador" style="swimlane;html=1;startSize=20;horizontal=0;" parent="2b4e8129b02d487f-1" vertex="1">
          <mxGeometry y="520" width="840" height="280" as="geometry">
            <mxRectangle y="520" width="840" height="30" as="alternateBounds" />
          </mxGeometry>
        </mxCell>
        <mxCell id="haEdG8nxDOKXYVsz_60H-103" style="edgeStyle=none;curved=1;rounded=0;orthogonalLoop=1;jettySize=auto;html=1;fontSize=12;startSize=8;endSize=8;entryX=0;entryY=0.5;entryDx=0;entryDy=0;" parent="2b4e8129b02d487f-4" source="2b4e8129b02d487f-14" target="haEdG8nxDOKXYVsz_60H-104" edge="1">
          <mxGeometry relative="1" as="geometry">
            <mxPoint x="180.0000000000001" y="118.25" as="targetPoint" />
          </mxGeometry>
        </mxCell>
        <mxCell id="2b4e8129b02d487f-14" value="Receber Notificação" style="rounded=1;whiteSpace=wrap;html=1;shadow=0;labelBackgroundColor=none;strokeWidth=1;fontFamily=Verdana;fontSize=8;align=center;" parent="2b4e8129b02d487f-4" vertex="1">
          <mxGeometry x="60" y="96.5" width="70" height="43.5" as="geometry" />
        </mxCell>
        <mxCell id="haEdG8nxDOKXYVsz_60H-55" style="edgeStyle=none;curved=1;rounded=0;orthogonalLoop=1;jettySize=auto;html=1;fontSize=12;startSize=8;endSize=8;" parent="2b4e8129b02d487f-4" source="haEdG8nxDOKXYVsz_60H-47" edge="1">
          <mxGeometry relative="1" as="geometry">
            <mxPoint x="522.4999999999999" y="165.2500000000001" as="targetPoint" />
          </mxGeometry>
        </mxCell>
        <mxCell id="haEdG8nxDOKXYVsz_60H-47" value="Agendar Horário para manutenção técnica" style="rounded=1;whiteSpace=wrap;html=1;shadow=0;labelBackgroundColor=none;strokeWidth=1;fontFamily=Verdana;fontSize=8;align=center;" parent="2b4e8129b02d487f-4" vertex="1">
          <mxGeometry x="402.5" y="143.5" width="70" height="43.5" as="geometry" />
        </mxCell>
        <mxCell id="haEdG8nxDOKXYVsz_60H-49" style="edgeStyle=none;curved=1;rounded=0;orthogonalLoop=1;jettySize=auto;html=1;entryX=0;entryY=0.5;entryDx=0;entryDy=0;fontSize=12;startSize=8;endSize=8;" parent="2b4e8129b02d487f-4" source="haEdG8nxDOKXYVsz_60H-48" target="haEdG8nxDOKXYVsz_60H-47" edge="1">
          <mxGeometry relative="1" as="geometry" />
        </mxCell>
        <mxCell id="haEdG8nxDOKXYVsz_60H-48" value="" style="points=[[0.25,0.25,0],[0.5,0,0],[0.75,0.25,0],[1,0.5,0],[0.75,0.75,0],[0.5,1,0],[0.25,0.75,0],[0,0.5,0]];shape=mxgraph.bpmn.gateway2;html=1;verticalLabelPosition=bottom;labelBackgroundColor=#ffffff;verticalAlign=top;align=center;perimeter=rhombusPerimeter;outlineConnect=0;outline=none;symbol=none;gwType=exclusive;" parent="2b4e8129b02d487f-4" vertex="1">
          <mxGeometry x="302.5" y="140.25" width="50" height="50" as="geometry" />
        </mxCell>
        <mxCell id="haEdG8nxDOKXYVsz_60H-51" value="&lt;font style=&quot;font-size: 10px;&quot;&gt;O funcionário confirmou o agendamento&amp;nbsp;&amp;nbsp;&lt;/font&gt;" style="text;html=1;align=center;verticalAlign=middle;whiteSpace=wrap;rounded=0;fontSize=16;" parent="2b4e8129b02d487f-4" vertex="1">
          <mxGeometry x="250" y="100" width="155" height="30" as="geometry" />
        </mxCell>
        <mxCell id="haEdG8nxDOKXYVsz_60H-54" value="&lt;font style=&quot;font-size: 10px;&quot;&gt;Sim&lt;/font&gt;" style="text;html=1;align=center;verticalAlign=middle;whiteSpace=wrap;rounded=0;fontSize=16;" parent="2b4e8129b02d487f-4" vertex="1">
          <mxGeometry x="342.5" y="140" width="60" height="30" as="geometry" />
        </mxCell>
        <mxCell id="haEdG8nxDOKXYVsz_60H-56" value="Realizar Manutenção" style="rounded=1;whiteSpace=wrap;html=1;shadow=0;labelBackgroundColor=none;strokeWidth=1;fontFamily=Verdana;fontSize=8;align=center;" parent="2b4e8129b02d487f-4" vertex="1">
          <mxGeometry x="522.5" y="143.5" width="70" height="43.5" as="geometry" />
        </mxCell>
        <mxCell id="haEdG8nxDOKXYVsz_60H-104" value="Agendar manutenção remota" style="rounded=1;whiteSpace=wrap;html=1;shadow=0;labelBackgroundColor=none;strokeWidth=1;fontFamily=Verdana;fontSize=8;align=center;" parent="2b4e8129b02d487f-4" vertex="1">
          <mxGeometry x="190" y="96.75" width="70" height="43.5" as="geometry" />
        </mxCell>
        <mxCell id="haEdG8nxDOKXYVsz_60H-83" style="edgeStyle=none;curved=0;rounded=0;orthogonalLoop=1;jettySize=auto;html=1;entryX=0.5;entryY=0;entryDx=0;entryDy=0;fontSize=12;startSize=8;endSize=8;" parent="2b4e8129b02d487f-1" source="haEdG8nxDOKXYVsz_60H-81" target="2b4e8129b02d487f-14" edge="1">
          <mxGeometry relative="1" as="geometry">
            <Array as="points">
              <mxPoint x="345" y="460" />
              <mxPoint x="95" y="460" />
            </Array>
          </mxGeometry>
        </mxCell>
      </root>
    </mxGraphModel>
  </diagram>
</mxfile>
